<?xml version="1.0" encoding="UTF-8" standalone="no"?>
<!DOCTYPE svg PUBLIC "-//W3C//DTD SVG 1.1//EN"
 "http://www.w3.org/Graphics/SVG/1.1/DTD/svg11.dtd">
<!-- Generated by graphviz version 2.28.0 (20111028.1807)
 -->
<!-- Title: finite_state_machine Pages: 1 -->
<svg width="598pt" height="161pt"
 viewBox="0.00 0.00 598.00 160.64" xmlns="http://www.w3.org/2000/svg" xmlns:xlink="http://www.w3.org/1999/xlink">
<g id="graph1" class="graph" transform="scale(0.928571 0.928571) rotate(0) translate(4 169)">
<title>finite_state_machine</title>
<polygon fill="white" stroke="white" points="-4,5 -4,-169 641,-169 641,5 -4,5"/>
<!-- top -->
<g id="node1" class="node"><title>top</title>
<polygon fill="beige" stroke="beige" points="12.5029,-80.3211 91.4971,-80.3211 103.497,-92.3211 103.497,-151.679 91.4971,-163.679 12.5029,-163.679 0.50293,-151.679 0.50293,-92.3211 12.5029,-80.3211"/>
<path fill="beige" stroke="beige" d="M91.4971,-80.3211C97.4971,-80.3211 103.497,-86.3211 103.497,-92.3211"/>
<path fill="beige" stroke="beige" d="M103.497,-151.679C103.497,-157.679 97.4971,-163.679 91.4971,-163.679"/>
<path fill="beige" stroke="beige" d="M12.5029,-163.679C6.50293,-163.679 0.50293,-157.679 0.50293,-151.679"/>
<path fill="beige" stroke="beige" d="M0.50293,-92.3211C0.50293,-86.3211 6.50293,-80.3211 12.5029,-80.3211"/>
<polyline fill="none" stroke="black" points="12.5029,-80.3211 91.4971,-80.3211 "/>
<path fill="none" stroke="black" d="M91.4971,-80.3211C97.4971,-80.3211 103.497,-86.3211 103.497,-92.3211"/>
<polyline fill="none" stroke="black" points="103.497,-92.3211 103.497,-151.679 "/>
<path fill="none" stroke="black" d="M103.497,-151.679C103.497,-157.679 97.4971,-163.679 91.4971,-163.679"/>
<polyline fill="none" stroke="black" points="91.4971,-163.679 12.5029,-163.679 "/>
<path fill="none" stroke="black" d="M12.5029,-163.679C6.50293,-163.679 0.50293,-157.679 0.50293,-151.679"/>
<polyline fill="none" stroke="black" points="0.50293,-151.679 0.50293,-92.3211 "/>
<path fill="none" stroke="black" d="M0.50293,-92.3211C0.50293,-86.3211 6.50293,-80.3211 12.5029,-80.3211"/>
<text text-anchor="middle" x="52" y="-145.679" font-family="Sans" font-size="14.00">[ Scope ]</text>
<polyline fill="none" stroke="black" points="0.50293,-135.893 103.497,-135.893 "/>
<text text-anchor="middle" x="52" y="-117.893" font-family="Sans" font-size="14.00">makeGreeter</text>
<polyline fill="none" stroke="black" points="0.50293,-108.107 103.497,-108.107 "/>
<text text-anchor="middle" x="52" y="-90.107" font-family="Sans" font-size="14.00">bob</text>
</g>
<!-- ob_bob -->
<g id="node3" class="node"><title>ob_bob</title>
<polygon fill="lightskyblue" stroke="lightskyblue" points="191.941,-5.21406 246.059,-5.21406 258.059,-17.2141 258.059,-48.7859 246.059,-60.7859 191.941,-60.7859 179.941,-48.7859 179.941,-17.2141 191.941,-5.21406"/>
<path fill="lightskyblue" stroke="lightskyblue" d="M246.059,-5.21406C252.059,-5.21406 258.059,-11.2141 258.059,-17.2141"/>
<path fill="lightskyblue" stroke="lightskyblue" d="M258.059,-48.7859C258.059,-54.7859 252.059,-60.7859 246.059,-60.7859"/>
<path fill="lightskyblue" stroke="lightskyblue" d="M191.941,-60.7859C185.941,-60.7859 179.941,-54.7859 179.941,-48.7859"/>
<path fill="lightskyblue" stroke="lightskyblue" d="M179.941,-17.2141C179.941,-11.2141 185.941,-5.21406 191.941,-5.21406"/>
<polyline fill="none" stroke="black" points="191.941,-5.21406 246.059,-5.21406 "/>
<path fill="none" stroke="black" d="M246.059,-5.21406C252.059,-5.21406 258.059,-11.2141 258.059,-17.2141"/>
<polyline fill="none" stroke="black" points="258.059,-17.2141 258.059,-48.7859 "/>
<path fill="none" stroke="black" d="M258.059,-48.7859C258.059,-54.7859 252.059,-60.7859 246.059,-60.7859"/>
<polyline fill="none" stroke="black" points="246.059,-60.7859 191.941,-60.7859 "/>
<path fill="none" stroke="black" d="M191.941,-60.7859C185.941,-60.7859 179.941,-54.7859 179.941,-48.7859"/>
<polyline fill="none" stroke="black" points="179.941,-48.7859 179.941,-17.2141 "/>
<path fill="none" stroke="black" d="M179.941,-17.2141C179.941,-11.2141 185.941,-5.21406 191.941,-5.21406"/>
<text text-anchor="middle" x="219" y="-42.7859" font-family="Sans" font-size="14.00">[ Object ]</text>
<polyline fill="none" stroke="black" points="179.941,-33 258.059,-33 "/>
<text text-anchor="middle" x="219" y="-15" font-family="Sans" font-size="14.00">greet</text>
</g>
<!-- top&#45;&gt;ob_bob -->
<g id="edge4" class="edge"><title>top:bob&#45;&gt;ob_bob:__proto__</title>
<path fill="none" stroke="black" d="M104,-94C122.987,-94 123.914,-81.0869 140,-71 153.875,-62.2993 157.495,-52.0608 168.984,-48.3932"/>
<polygon fill="black" stroke="black" points="169.578,-51.8445 179,-47 168.613,-44.9112 169.578,-51.8445"/>
</g>
<!-- fn_makeGreeter -->
<g id="node4" class="node"><title>fn_makeGreeter</title>
<polygon fill="orange" stroke="orange" points="151.752,-80.2141 286.248,-80.2141 298.248,-92.2141 298.248,-123.786 286.248,-135.786 151.752,-135.786 139.752,-123.786 139.752,-92.2141 151.752,-80.2141"/>
<path fill="orange" stroke="orange" d="M286.248,-80.2141C292.248,-80.2141 298.248,-86.2141 298.248,-92.2141"/>
<path fill="orange" stroke="orange" d="M298.248,-123.786C298.248,-129.786 292.248,-135.786 286.248,-135.786"/>
<path fill="orange" stroke="orange" d="M151.752,-135.786C145.752,-135.786 139.752,-129.786 139.752,-123.786"/>
<path fill="orange" stroke="orange" d="M139.752,-92.2141C139.752,-86.2141 145.752,-80.2141 151.752,-80.2141"/>
<polyline fill="none" stroke="black" points="151.752,-80.2141 286.248,-80.2141 "/>
<path fill="none" stroke="black" d="M286.248,-80.2141C292.248,-80.2141 298.248,-86.2141 298.248,-92.2141"/>
<polyline fill="none" stroke="black" points="298.248,-92.2141 298.248,-123.786 "/>
<path fill="none" stroke="black" d="M298.248,-123.786C298.248,-129.786 292.248,-135.786 286.248,-135.786"/>
<polyline fill="none" stroke="black" points="286.248,-135.786 151.752,-135.786 "/>
<path fill="none" stroke="black" d="M151.752,-135.786C145.752,-135.786 139.752,-129.786 139.752,-123.786"/>
<polyline fill="none" stroke="black" points="139.752,-123.786 139.752,-92.2141 "/>
<path fill="none" stroke="black" d="M139.752,-92.2141C139.752,-86.2141 145.752,-80.2141 151.752,-80.2141"/>
<text text-anchor="middle" x="219" y="-117.786" font-family="Sans" font-size="14.00">[makeGreeter(name)]</text>
<polyline fill="none" stroke="black" points="139.752,-108 298.248,-108 "/>
<text text-anchor="middle" x="219" y="-90" font-family="Sans" font-size="14.00">{ return { ... } }</text>
</g>
<!-- top&#45;&gt;fn_makeGreeter -->
<g id="edge2" class="edge"><title>top:makeGreeter&#45;&gt;fn_makeGreeter:__proto__</title>
<path fill="none" stroke="black" d="M104,-122C116,-122 121.25,-122 129.875,-122"/>
<polygon fill="black" stroke="black" points="130,-125.5 140,-122 130,-118.5 130,-125.5"/>
</g>
<!-- closure -->
<g id="node2" class="node"><title>closure</title>
<polygon fill="beige" stroke="beige" points="551.853,-61.2141 624.147,-61.2141 636.147,-73.2141 636.147,-104.786 624.147,-116.786 551.853,-116.786 539.853,-104.786 539.853,-73.2141 551.853,-61.2141"/>
<path fill="beige" stroke="beige" d="M624.147,-61.2141C630.147,-61.2141 636.147,-67.2141 636.147,-73.2141"/>
<path fill="beige" stroke="beige" d="M636.147,-104.786C636.147,-110.786 630.147,-116.786 624.147,-116.786"/>
<path fill="beige" stroke="beige" d="M551.853,-116.786C545.853,-116.786 539.853,-110.786 539.853,-104.786"/>
<path fill="beige" stroke="beige" d="M539.853,-73.2141C539.853,-67.2141 545.853,-61.2141 551.853,-61.2141"/>
<polyline fill="none" stroke="black" points="551.853,-61.2141 624.147,-61.2141 "/>
<path fill="none" stroke="black" d="M624.147,-61.2141C630.147,-61.2141 636.147,-67.2141 636.147,-73.2141"/>
<polyline fill="none" stroke="black" points="636.147,-73.2141 636.147,-104.786 "/>
<path fill="none" stroke="black" d="M636.147,-104.786C636.147,-110.786 630.147,-116.786 624.147,-116.786"/>
<polyline fill="none" stroke="black" points="624.147,-116.786 551.853,-116.786 "/>
<path fill="none" stroke="black" d="M551.853,-116.786C545.853,-116.786 539.853,-110.786 539.853,-104.786"/>
<polyline fill="none" stroke="black" points="539.853,-104.786 539.853,-73.2141 "/>
<path fill="none" stroke="black" d="M539.853,-73.2141C539.853,-67.2141 545.853,-61.2141 551.853,-61.2141"/>
<text text-anchor="middle" x="588" y="-98.7859" font-family="Sans" font-size="14.00">[ Scope ]</text>
<polyline fill="none" stroke="black" points="539.853,-89 636.147,-89 "/>
<text text-anchor="middle" x="588" y="-71" font-family="Sans" font-size="14.00">name=&#39;Bob&#39;</text>
</g>
<!-- closure&#45;&gt;top -->
<g id="edge10" class="edge"><title>closure&#45;&gt;top:__proto__</title>
<path fill="none" stroke="black" stroke-dasharray="5,2" d="M539.808,-100.645C482.89,-114.106 384.116,-135.612 298,-145 215.774,-153.964 192.163,-150.334 114.297,-150.021"/>
<polygon fill="black" stroke="black" points="114.007,-146.52 104,-150 113.993,-153.52 114.007,-146.52"/>
</g>
<!-- fn_greet -->
<g id="node5" class="node"><title>fn_greet</title>
<polygon fill="orange" stroke="orange" points="346.441,-0.321094 491.559,-0.321094 503.559,-12.3211 503.559,-71.6789 491.559,-83.6789 346.441,-83.6789 334.441,-71.6789 334.441,-12.3211 346.441,-0.321094"/>
<path fill="orange" stroke="orange" d="M491.559,-0.321094C497.559,-0.321094 503.559,-6.32109 503.559,-12.3211"/>
<path fill="orange" stroke="orange" d="M503.559,-71.6789C503.559,-77.6789 497.559,-83.6789 491.559,-83.6789"/>
<path fill="orange" stroke="orange" d="M346.441,-83.6789C340.441,-83.6789 334.441,-77.6789 334.441,-71.6789"/>
<path fill="orange" stroke="orange" d="M334.441,-12.3211C334.441,-6.32109 340.441,-0.321094 346.441,-0.321094"/>
<polyline fill="none" stroke="black" points="346.441,-0.321094 491.559,-0.321094 "/>
<path fill="none" stroke="black" d="M491.559,-0.321094C497.559,-0.321094 503.559,-6.32109 503.559,-12.3211"/>
<polyline fill="none" stroke="black" points="503.559,-12.3211 503.559,-71.6789 "/>
<path fill="none" stroke="black" d="M503.559,-71.6789C503.559,-77.6789 497.559,-83.6789 491.559,-83.6789"/>
<polyline fill="none" stroke="black" points="491.559,-83.6789 346.441,-83.6789 "/>
<path fill="none" stroke="black" d="M346.441,-83.6789C340.441,-83.6789 334.441,-77.6789 334.441,-71.6789"/>
<polyline fill="none" stroke="black" points="334.441,-71.6789 334.441,-12.3211 "/>
<path fill="none" stroke="black" d="M334.441,-12.3211C334.441,-6.32109 340.441,-0.321094 346.441,-0.321094"/>
<text text-anchor="middle" x="419" y="-65.6789" font-family="Sans" font-size="14.00">[ Function ]</text>
<polyline fill="none" stroke="black" points="334.441,-55.893 503.559,-55.893 "/>
<text text-anchor="middle" x="419" y="-37.893" font-family="Sans" font-size="14.00">{name + &#39; greets you!&#39;}</text>
<polyline fill="none" stroke="black" points="334.441,-28.107 503.559,-28.107 "/>
<text text-anchor="middle" x="419" y="-10.107" font-family="Sans" font-size="14.00">[scope]</text>
</g>
<!-- ob_bob&#45;&gt;fn_greet -->
<g id="edge6" class="edge"><title>ob_bob:greet&#45;&gt;fn_greet:__proto__</title>
<path fill="none" stroke="black" d="M259,-19C295.531,-19 294.34,-60.8857 323.798,-68.7393"/>
<polygon fill="black" stroke="black" points="323.646,-72.2471 334,-70 324.505,-65.2999 323.646,-72.2471"/>
</g>
<!-- fn_greet&#45;&gt;closure -->
<g id="edge8" class="edge"><title>fn_greet:__scope__&#45;&gt;closure</title>
<path fill="none" stroke="black" d="M504,-14C529.49,-14 550.66,-33.7142 565.239,-52.9279"/>
<polygon fill="black" stroke="black" points="562.407,-54.9841 571.078,-61.0728 568.096,-50.906 562.407,-54.9841"/>
</g>
</g>
</svg>
