<?xml version="1.0" encoding="UTF-8" standalone="no"?>
<!DOCTYPE svg PUBLIC "-//W3C//DTD SVG 1.1//EN"
 "http://www.w3.org/Graphics/SVG/1.1/DTD/svg11.dtd">
<!-- Generated by graphviz version 2.28.0 (20111028.1807)
 -->
<!-- Title: finite_state_machine Pages: 1 -->
<svg width="564pt" height="134pt"
 viewBox="0.00 0.00 564.00 134.00" xmlns="http://www.w3.org/2000/svg" xmlns:xlink="http://www.w3.org/1999/xlink">
<g id="graph1" class="graph" transform="scale(1 1) rotate(0) translate(4 130)">
<title>finite_state_machine</title>
<polygon fill="white" stroke="white" points="-4,5 -4,-130 561,-130 561,5 -4,5"/>
<!-- top -->
<g id="node1" class="node"><title>top</title>
<polygon fill="beige" stroke="beige" points="12.0566,-42.3211 61.9434,-42.3211 73.9434,-54.3211 73.9434,-113.679 61.9434,-125.679 12.0566,-125.679 0.0566406,-113.679 0.0566406,-54.3211 12.0566,-42.3211"/>
<path fill="beige" stroke="beige" d="M61.9434,-42.3211C67.9434,-42.3211 73.9434,-48.3211 73.9434,-54.3211"/>
<path fill="beige" stroke="beige" d="M73.9434,-113.679C73.9434,-119.679 67.9434,-125.679 61.9434,-125.679"/>
<path fill="beige" stroke="beige" d="M12.0566,-125.679C6.05664,-125.679 0.0566406,-119.679 0.0566406,-113.679"/>
<path fill="beige" stroke="beige" d="M0.0566406,-54.3211C0.0566406,-48.3211 6.05664,-42.3211 12.0566,-42.3211"/>
<polyline fill="none" stroke="black" points="12.0566,-42.3211 61.9434,-42.3211 "/>
<path fill="none" stroke="black" d="M61.9434,-42.3211C67.9434,-42.3211 73.9434,-48.3211 73.9434,-54.3211"/>
<polyline fill="none" stroke="black" points="73.9434,-54.3211 73.9434,-113.679 "/>
<path fill="none" stroke="black" d="M73.9434,-113.679C73.9434,-119.679 67.9434,-125.679 61.9434,-125.679"/>
<polyline fill="none" stroke="black" points="61.9434,-125.679 12.0566,-125.679 "/>
<path fill="none" stroke="black" d="M12.0566,-125.679C6.05664,-125.679 0.0566406,-119.679 0.0566406,-113.679"/>
<polyline fill="none" stroke="black" points="0.0566406,-113.679 0.0566406,-54.3211 "/>
<path fill="none" stroke="black" d="M0.0566406,-54.3211C0.0566406,-48.3211 6.05664,-42.3211 12.0566,-42.3211"/>
<text text-anchor="middle" x="37" y="-107.679" font-family="Sans" font-size="14.00">[ Scope ]</text>
<polyline fill="none" stroke="black" points="0.0566406,-97.893 73.9434,-97.893 "/>
<text text-anchor="middle" x="37" y="-79.893" font-family="Sans" font-size="14.00">greeter</text>
<polyline fill="none" stroke="black" points="0.0566406,-70.107 73.9434,-70.107 "/>
<text text-anchor="middle" x="37" y="-52.107" font-family="Sans" font-size="14.00">bob</text>
</g>
<!-- ob_greeter -->
<g id="node2" class="node"><title>ob_greeter</title>
<polygon fill="lightskyblue" stroke="lightskyblue" points="253.941,-28.2141 308.059,-28.2141 320.059,-40.2141 320.059,-71.7859 308.059,-83.7859 253.941,-83.7859 241.941,-71.7859 241.941,-40.2141 253.941,-28.2141"/>
<path fill="lightskyblue" stroke="lightskyblue" d="M308.059,-28.2141C314.059,-28.2141 320.059,-34.2141 320.059,-40.2141"/>
<path fill="lightskyblue" stroke="lightskyblue" d="M320.059,-71.7859C320.059,-77.7859 314.059,-83.7859 308.059,-83.7859"/>
<path fill="lightskyblue" stroke="lightskyblue" d="M253.941,-83.7859C247.941,-83.7859 241.941,-77.7859 241.941,-71.7859"/>
<path fill="lightskyblue" stroke="lightskyblue" d="M241.941,-40.2141C241.941,-34.2141 247.941,-28.2141 253.941,-28.2141"/>
<polyline fill="none" stroke="black" points="253.941,-28.2141 308.059,-28.2141 "/>
<path fill="none" stroke="black" d="M308.059,-28.2141C314.059,-28.2141 320.059,-34.2141 320.059,-40.2141"/>
<polyline fill="none" stroke="black" points="320.059,-40.2141 320.059,-71.7859 "/>
<path fill="none" stroke="black" d="M320.059,-71.7859C320.059,-77.7859 314.059,-83.7859 308.059,-83.7859"/>
<polyline fill="none" stroke="black" points="308.059,-83.7859 253.941,-83.7859 "/>
<path fill="none" stroke="black" d="M253.941,-83.7859C247.941,-83.7859 241.941,-77.7859 241.941,-71.7859"/>
<polyline fill="none" stroke="black" points="241.941,-71.7859 241.941,-40.2141 "/>
<path fill="none" stroke="black" d="M241.941,-40.2141C241.941,-34.2141 247.941,-28.2141 253.941,-28.2141"/>
<text text-anchor="middle" x="281" y="-65.7859" font-family="Sans" font-size="14.00">[ Object ]</text>
<polyline fill="none" stroke="black" points="241.941,-56 320.059,-56 "/>
<text text-anchor="middle" x="281" y="-38" font-family="Sans" font-size="14.00">greet</text>
</g>
<!-- top&#45;&gt;ob_greeter -->
<g id="edge2" class="edge"><title>top:greeter&#45;&gt;ob_greeter:__proto__</title>
<path fill="none" stroke="black" d="M74,-84C108.463,-84 189.987,-72.1524 231.987,-70.2549"/>
<polygon fill="black" stroke="black" points="232.092,-73.7535 242,-70 231.914,-66.7558 232.092,-73.7535"/>
</g>
<!-- ob_bob -->
<g id="node3" class="node"><title>ob_bob</title>
<polygon fill="lightskyblue" stroke="lightskyblue" points="121.853,-7.21406 194.147,-7.21406 206.147,-19.2141 206.147,-50.7859 194.147,-62.7859 121.853,-62.7859 109.853,-50.7859 109.853,-19.2141 121.853,-7.21406"/>
<path fill="lightskyblue" stroke="lightskyblue" d="M194.147,-7.21406C200.147,-7.21406 206.147,-13.2141 206.147,-19.2141"/>
<path fill="lightskyblue" stroke="lightskyblue" d="M206.147,-50.7859C206.147,-56.7859 200.147,-62.7859 194.147,-62.7859"/>
<path fill="lightskyblue" stroke="lightskyblue" d="M121.853,-62.7859C115.853,-62.7859 109.853,-56.7859 109.853,-50.7859"/>
<path fill="lightskyblue" stroke="lightskyblue" d="M109.853,-19.2141C109.853,-13.2141 115.853,-7.21406 121.853,-7.21406"/>
<polyline fill="none" stroke="black" points="121.853,-7.21406 194.147,-7.21406 "/>
<path fill="none" stroke="black" d="M194.147,-7.21406C200.147,-7.21406 206.147,-13.2141 206.147,-19.2141"/>
<polyline fill="none" stroke="black" points="206.147,-19.2141 206.147,-50.7859 "/>
<path fill="none" stroke="black" d="M206.147,-50.7859C206.147,-56.7859 200.147,-62.7859 194.147,-62.7859"/>
<polyline fill="none" stroke="black" points="194.147,-62.7859 121.853,-62.7859 "/>
<path fill="none" stroke="black" d="M121.853,-62.7859C115.853,-62.7859 109.853,-56.7859 109.853,-50.7859"/>
<polyline fill="none" stroke="black" points="109.853,-50.7859 109.853,-19.2141 "/>
<path fill="none" stroke="black" d="M109.853,-19.2141C109.853,-13.2141 115.853,-7.21406 121.853,-7.21406"/>
<text text-anchor="middle" x="158" y="-44.7859" font-family="Sans" font-size="14.00">[ Object ]</text>
<polyline fill="none" stroke="black" points="109.853,-35 206.147,-35 "/>
<text text-anchor="middle" x="158" y="-17" font-family="Sans" font-size="14.00">name=&#39;Bob&#39;</text>
</g>
<!-- top&#45;&gt;ob_bob -->
<g id="edge4" class="edge"><title>top:bob&#45;&gt;ob_bob:__proto__</title>
<path fill="none" stroke="black" d="M74,-56C86.2247,-56 91.1938,-52.0625 99.7907,-50.0938"/>
<polygon fill="black" stroke="black" points="100.43,-53.5454 110,-49 99.684,-46.5852 100.43,-53.5454"/>
</g>
<!-- fn_greet -->
<g id="node4" class="node"><title>fn_greet</title>
<polygon fill="orange" stroke="orange" points="368.672,-0.214063 543.328,-0.214063 555.328,-12.2141 555.328,-43.7859 543.328,-55.7859 368.672,-55.7859 356.672,-43.7859 356.672,-12.2141 368.672,-0.214063"/>
<path fill="orange" stroke="orange" d="M543.328,-0.214063C549.328,-0.214063 555.328,-6.21406 555.328,-12.2141"/>
<path fill="orange" stroke="orange" d="M555.328,-43.7859C555.328,-49.7859 549.328,-55.7859 543.328,-55.7859"/>
<path fill="orange" stroke="orange" d="M368.672,-55.7859C362.672,-55.7859 356.672,-49.7859 356.672,-43.7859"/>
<path fill="orange" stroke="orange" d="M356.672,-12.2141C356.672,-6.21406 362.672,-0.214063 368.672,-0.214063"/>
<polyline fill="none" stroke="black" points="368.672,-0.214063 543.328,-0.214063 "/>
<path fill="none" stroke="black" d="M543.328,-0.214063C549.328,-0.214063 555.328,-6.21406 555.328,-12.2141"/>
<polyline fill="none" stroke="black" points="555.328,-12.2141 555.328,-43.7859 "/>
<path fill="none" stroke="black" d="M555.328,-43.7859C555.328,-49.7859 549.328,-55.7859 543.328,-55.7859"/>
<polyline fill="none" stroke="black" points="543.328,-55.7859 368.672,-55.7859 "/>
<path fill="none" stroke="black" d="M368.672,-55.7859C362.672,-55.7859 356.672,-49.7859 356.672,-43.7859"/>
<polyline fill="none" stroke="black" points="356.672,-43.7859 356.672,-12.2141 "/>
<path fill="none" stroke="black" d="M356.672,-12.2141C356.672,-6.21406 362.672,-0.214063 368.672,-0.214063"/>
<text text-anchor="middle" x="456" y="-37.7859" font-family="Sans" font-size="14.00">[ Function ]</text>
<polyline fill="none" stroke="black" points="356.672,-28 555.328,-28 "/>
<text text-anchor="middle" x="456" y="-10" font-family="Sans" font-size="14.00">{this.name + &#39; greets you!&#39;}</text>
</g>
<!-- ob_greeter&#45;&gt;fn_greet -->
<g id="edge6" class="edge"><title>ob_greeter:greet&#45;&gt;fn_greet:__proto__</title>
<path fill="none" stroke="black" d="M320,-42C332,-42 337.25,-42 345.875,-42"/>
<polygon fill="black" stroke="black" points="346,-45.5001 356,-42 346,-38.5001 346,-45.5001"/>
</g>
<!-- ob_bob&#45;&gt;ob_greeter -->
<g id="edge8" class="edge"><title>ob_bob:__proto__&#45;&gt;ob_greeter:__proto__</title>
<path fill="none" stroke="black" stroke-dasharray="5,2" d="M206,-49C220.471,-49 222.998,-61.8174 232.244,-67.425"/>
<polygon fill="black" stroke="black" points="231.438,-70.8321 242,-70 233.224,-64.0639 231.438,-70.8321"/>
</g>
</g>
</svg>
