<?xml version="1.0" encoding="UTF-8" standalone="no"?>
<!DOCTYPE svg PUBLIC "-//W3C//DTD SVG 1.1//EN"
 "http://www.w3.org/Graphics/SVG/1.1/DTD/svg11.dtd">
<!-- Generated by graphviz version 2.28.0 (20111028.1807)
 -->
<!-- Title: finite_state_machine Pages: 1 -->
<svg width="450pt" height="148pt"
 viewBox="0.00 0.00 450.00 148.00" xmlns="http://www.w3.org/2000/svg" xmlns:xlink="http://www.w3.org/1999/xlink">
<g id="graph1" class="graph" transform="scale(1 1) rotate(0) translate(4 144)">
<title>finite_state_machine</title>
<polygon fill="white" stroke="white" points="-4,5 -4,-144 447,-144 447,5 -4,5"/>
<!-- top -->
<g id="node1" class="node"><title>top</title>
<polygon fill="beige" stroke="beige" points="12.0566,-84.2141 61.9434,-84.2141 73.9434,-96.2141 73.9434,-127.786 61.9434,-139.786 12.0566,-139.786 0.0566406,-127.786 0.0566406,-96.2141 12.0566,-84.2141"/>
<path fill="beige" stroke="beige" d="M61.9434,-84.2141C67.9434,-84.2141 73.9434,-90.2141 73.9434,-96.2141"/>
<path fill="beige" stroke="beige" d="M73.9434,-127.786C73.9434,-133.786 67.9434,-139.786 61.9434,-139.786"/>
<path fill="beige" stroke="beige" d="M12.0566,-139.786C6.05664,-139.786 0.0566406,-133.786 0.0566406,-127.786"/>
<path fill="beige" stroke="beige" d="M0.0566406,-96.2141C0.0566406,-90.2141 6.05664,-84.2141 12.0566,-84.2141"/>
<polyline fill="none" stroke="black" points="12.0566,-84.2141 61.9434,-84.2141 "/>
<path fill="none" stroke="black" d="M61.9434,-84.2141C67.9434,-84.2141 73.9434,-90.2141 73.9434,-96.2141"/>
<polyline fill="none" stroke="black" points="73.9434,-96.2141 73.9434,-127.786 "/>
<path fill="none" stroke="black" d="M73.9434,-127.786C73.9434,-133.786 67.9434,-139.786 61.9434,-139.786"/>
<polyline fill="none" stroke="black" points="61.9434,-139.786 12.0566,-139.786 "/>
<path fill="none" stroke="black" d="M12.0566,-139.786C6.05664,-139.786 0.0566406,-133.786 0.0566406,-127.786"/>
<polyline fill="none" stroke="black" points="0.0566406,-127.786 0.0566406,-96.2141 "/>
<path fill="none" stroke="black" d="M0.0566406,-96.2141C0.0566406,-90.2141 6.05664,-84.2141 12.0566,-84.2141"/>
<text text-anchor="middle" x="37" y="-121.786" font-family="Sans" font-size="14.00">[ Scope ]</text>
<polyline fill="none" stroke="black" points="0.0566406,-112 73.9434,-112 "/>
<text text-anchor="middle" x="37" y="-94" font-family="Sans" font-size="14.00">bob</text>
</g>
<!-- ob_bob -->
<g id="node2" class="node"><title>ob_bob</title>
<polygon fill="lightskyblue" stroke="lightskyblue" points="121.853,-28.3211 194.147,-28.3211 206.147,-40.3211 206.147,-99.6789 194.147,-111.679 121.853,-111.679 109.853,-99.6789 109.853,-40.3211 121.853,-28.3211"/>
<path fill="lightskyblue" stroke="lightskyblue" d="M194.147,-28.3211C200.147,-28.3211 206.147,-34.3211 206.147,-40.3211"/>
<path fill="lightskyblue" stroke="lightskyblue" d="M206.147,-99.6789C206.147,-105.679 200.147,-111.679 194.147,-111.679"/>
<path fill="lightskyblue" stroke="lightskyblue" d="M121.853,-111.679C115.853,-111.679 109.853,-105.679 109.853,-99.6789"/>
<path fill="lightskyblue" stroke="lightskyblue" d="M109.853,-40.3211C109.853,-34.3211 115.853,-28.3211 121.853,-28.3211"/>
<polyline fill="none" stroke="black" points="121.853,-28.3211 194.147,-28.3211 "/>
<path fill="none" stroke="black" d="M194.147,-28.3211C200.147,-28.3211 206.147,-34.3211 206.147,-40.3211"/>
<polyline fill="none" stroke="black" points="206.147,-40.3211 206.147,-99.6789 "/>
<path fill="none" stroke="black" d="M206.147,-99.6789C206.147,-105.679 200.147,-111.679 194.147,-111.679"/>
<polyline fill="none" stroke="black" points="194.147,-111.679 121.853,-111.679 "/>
<path fill="none" stroke="black" d="M121.853,-111.679C115.853,-111.679 109.853,-105.679 109.853,-99.6789"/>
<polyline fill="none" stroke="black" points="109.853,-99.6789 109.853,-40.3211 "/>
<path fill="none" stroke="black" d="M109.853,-40.3211C109.853,-34.3211 115.853,-28.3211 121.853,-28.3211"/>
<text text-anchor="middle" x="158" y="-93.6789" font-family="Sans" font-size="14.00">[ Object ]</text>
<polyline fill="none" stroke="black" points="109.853,-83.893 206.147,-83.893 "/>
<text text-anchor="middle" x="158" y="-65.893" font-family="Sans" font-size="14.00">name=&#39;Bob&#39;</text>
<polyline fill="none" stroke="black" points="109.853,-56.107 206.147,-56.107 "/>
<text text-anchor="middle" x="158" y="-38.107" font-family="Sans" font-size="14.00">greet</text>
</g>
<!-- top&#45;&gt;ob_bob -->
<g id="edge2" class="edge"><title>top:bob&#45;&gt;ob_bob:__proto__</title>
<path fill="none" stroke="black" d="M74,-98C86,-98 91.25,-98 99.875,-98"/>
<polygon fill="black" stroke="black" points="100,-101.5 110,-98 100,-94.5001 100,-101.5"/>
</g>
<!-- fn_greet -->
<g id="node3" class="node"><title>fn_greet</title>
<polygon fill="orange" stroke="orange" points="254.672,-0.214063 429.328,-0.214063 441.328,-12.2141 441.328,-43.7859 429.328,-55.7859 254.672,-55.7859 242.672,-43.7859 242.672,-12.2141 254.672,-0.214063"/>
<path fill="orange" stroke="orange" d="M429.328,-0.214063C435.328,-0.214063 441.328,-6.21406 441.328,-12.2141"/>
<path fill="orange" stroke="orange" d="M441.328,-43.7859C441.328,-49.7859 435.328,-55.7859 429.328,-55.7859"/>
<path fill="orange" stroke="orange" d="M254.672,-55.7859C248.672,-55.7859 242.672,-49.7859 242.672,-43.7859"/>
<path fill="orange" stroke="orange" d="M242.672,-12.2141C242.672,-6.21406 248.672,-0.214063 254.672,-0.214063"/>
<polyline fill="none" stroke="black" points="254.672,-0.214063 429.328,-0.214063 "/>
<path fill="none" stroke="black" d="M429.328,-0.214063C435.328,-0.214063 441.328,-6.21406 441.328,-12.2141"/>
<polyline fill="none" stroke="black" points="441.328,-12.2141 441.328,-43.7859 "/>
<path fill="none" stroke="black" d="M441.328,-43.7859C441.328,-49.7859 435.328,-55.7859 429.328,-55.7859"/>
<polyline fill="none" stroke="black" points="429.328,-55.7859 254.672,-55.7859 "/>
<path fill="none" stroke="black" d="M254.672,-55.7859C248.672,-55.7859 242.672,-49.7859 242.672,-43.7859"/>
<polyline fill="none" stroke="black" points="242.672,-43.7859 242.672,-12.2141 "/>
<path fill="none" stroke="black" d="M242.672,-12.2141C242.672,-6.21406 248.672,-0.214063 254.672,-0.214063"/>
<text text-anchor="middle" x="342" y="-37.7859" font-family="Sans" font-size="14.00">[ Function ]</text>
<polyline fill="none" stroke="black" points="242.672,-28 441.328,-28 "/>
<text text-anchor="middle" x="342" y="-10" font-family="Sans" font-size="14.00">{this.name + &#39; greets you!&#39;}</text>
</g>
<!-- ob_bob&#45;&gt;fn_greet -->
<g id="edge4" class="edge"><title>ob_bob:greet&#45;&gt;fn_greet:__proto__</title>
<path fill="none" stroke="black" d="M206,-42C218,-42 223.25,-42 231.875,-42"/>
<polygon fill="black" stroke="black" points="232,-45.5001 242,-42 232,-38.5001 232,-45.5001"/>
</g>
</g>
</svg>
