<?xml version="1.0" encoding="UTF-8" standalone="no"?>
<!DOCTYPE svg PUBLIC "-//W3C//DTD SVG 1.1//EN"
 "http://www.w3.org/Graphics/SVG/1.1/DTD/svg11.dtd">
<!-- Generated by graphviz version 2.28.0 (20111028.1807)
 -->
<!-- Title: finite_state_machine Pages: 1 -->
<svg width="580pt" height="184pt"
 viewBox="0.00 0.00 580.00 184.00" xmlns="http://www.w3.org/2000/svg" xmlns:xlink="http://www.w3.org/1999/xlink">
<g id="graph1" class="graph" transform="scale(1 1) rotate(0) translate(4 180)">
<title>finite_state_machine</title>
<polygon fill="white" stroke="white" points="-4,5 -4,-180 577,-180 577,5 -4,5"/>
<!-- top -->
<g id="node1" class="node"><title>top</title>
<polygon fill="beige" stroke="beige" points="12.0566,-92.3211 61.9434,-92.3211 73.9434,-104.321 73.9434,-163.679 61.9434,-175.679 12.0566,-175.679 0.0566406,-163.679 0.0566406,-104.321 12.0566,-92.3211"/>
<path fill="beige" stroke="beige" d="M61.9434,-92.3211C67.9434,-92.3211 73.9434,-98.3211 73.9434,-104.321"/>
<path fill="beige" stroke="beige" d="M73.9434,-163.679C73.9434,-169.679 67.9434,-175.679 61.9434,-175.679"/>
<path fill="beige" stroke="beige" d="M12.0566,-175.679C6.05664,-175.679 0.0566406,-169.679 0.0566406,-163.679"/>
<path fill="beige" stroke="beige" d="M0.0566406,-104.321C0.0566406,-98.3211 6.05664,-92.3211 12.0566,-92.3211"/>
<polyline fill="none" stroke="black" points="12.0566,-92.3211 61.9434,-92.3211 "/>
<path fill="none" stroke="black" d="M61.9434,-92.3211C67.9434,-92.3211 73.9434,-98.3211 73.9434,-104.321"/>
<polyline fill="none" stroke="black" points="73.9434,-104.321 73.9434,-163.679 "/>
<path fill="none" stroke="black" d="M73.9434,-163.679C73.9434,-169.679 67.9434,-175.679 61.9434,-175.679"/>
<polyline fill="none" stroke="black" points="61.9434,-175.679 12.0566,-175.679 "/>
<path fill="none" stroke="black" d="M12.0566,-175.679C6.05664,-175.679 0.0566406,-169.679 0.0566406,-163.679"/>
<polyline fill="none" stroke="black" points="0.0566406,-163.679 0.0566406,-104.321 "/>
<path fill="none" stroke="black" d="M0.0566406,-104.321C0.0566406,-98.3211 6.05664,-92.3211 12.0566,-92.3211"/>
<text text-anchor="middle" x="37" y="-157.679" font-family="Sans" font-size="14.00">[ Scope ]</text>
<polyline fill="none" stroke="black" points="0.0566406,-147.893 73.9434,-147.893 "/>
<text text-anchor="middle" x="37" y="-129.893" font-family="Sans" font-size="14.00">Greeter</text>
<polyline fill="none" stroke="black" points="0.0566406,-120.107 73.9434,-120.107 "/>
<text text-anchor="middle" x="37" y="-102.107" font-family="Sans" font-size="14.00">bob</text>
</g>
<!-- ob_bob -->
<g id="node3" class="node"><title>ob_bob</title>
<polygon fill="lightskyblue" stroke="lightskyblue" points="121.853,-57.2141 194.147,-57.2141 206.147,-69.2141 206.147,-100.786 194.147,-112.786 121.853,-112.786 109.853,-100.786 109.853,-69.2141 121.853,-57.2141"/>
<path fill="lightskyblue" stroke="lightskyblue" d="M194.147,-57.2141C200.147,-57.2141 206.147,-63.2141 206.147,-69.2141"/>
<path fill="lightskyblue" stroke="lightskyblue" d="M206.147,-100.786C206.147,-106.786 200.147,-112.786 194.147,-112.786"/>
<path fill="lightskyblue" stroke="lightskyblue" d="M121.853,-112.786C115.853,-112.786 109.853,-106.786 109.853,-100.786"/>
<path fill="lightskyblue" stroke="lightskyblue" d="M109.853,-69.2141C109.853,-63.2141 115.853,-57.2141 121.853,-57.2141"/>
<polyline fill="none" stroke="black" points="121.853,-57.2141 194.147,-57.2141 "/>
<path fill="none" stroke="black" d="M194.147,-57.2141C200.147,-57.2141 206.147,-63.2141 206.147,-69.2141"/>
<polyline fill="none" stroke="black" points="206.147,-69.2141 206.147,-100.786 "/>
<path fill="none" stroke="black" d="M206.147,-100.786C206.147,-106.786 200.147,-112.786 194.147,-112.786"/>
<polyline fill="none" stroke="black" points="194.147,-112.786 121.853,-112.786 "/>
<path fill="none" stroke="black" d="M121.853,-112.786C115.853,-112.786 109.853,-106.786 109.853,-100.786"/>
<polyline fill="none" stroke="black" points="109.853,-100.786 109.853,-69.2141 "/>
<path fill="none" stroke="black" d="M109.853,-69.2141C109.853,-63.2141 115.853,-57.2141 121.853,-57.2141"/>
<text text-anchor="middle" x="158" y="-94.7859" font-family="Sans" font-size="14.00">[ Object ]</text>
<polyline fill="none" stroke="black" points="109.853,-85 206.147,-85 "/>
<text text-anchor="middle" x="158" y="-67" font-family="Sans" font-size="14.00">name=&#39;Bob&#39;</text>
</g>
<!-- top&#45;&gt;ob_bob -->
<g id="edge4" class="edge"><title>top:bob&#45;&gt;ob_bob:__proto__</title>
<path fill="none" stroke="black" d="M74,-106C86.2247,-106 91.1938,-102.062 99.7907,-100.094"/>
<polygon fill="black" stroke="black" points="100.43,-103.545 110,-99 99.684,-96.5852 100.43,-103.545"/>
</g>
<!-- fn_Greeter -->
<g id="node4" class="node"><title>fn_Greeter</title>
<polygon fill="orange" stroke="orange" points="409.394,-74.3211 534.606,-74.3211 546.606,-86.3211 546.606,-145.679 534.606,-157.679 409.394,-157.679 397.394,-145.679 397.394,-86.3211 409.394,-74.3211"/>
<path fill="orange" stroke="orange" d="M534.606,-74.3211C540.606,-74.3211 546.606,-80.3211 546.606,-86.3211"/>
<path fill="orange" stroke="orange" d="M546.606,-145.679C546.606,-151.679 540.606,-157.679 534.606,-157.679"/>
<path fill="orange" stroke="orange" d="M409.394,-157.679C403.394,-157.679 397.394,-151.679 397.394,-145.679"/>
<path fill="orange" stroke="orange" d="M397.394,-86.3211C397.394,-80.3211 403.394,-74.3211 409.394,-74.3211"/>
<polyline fill="none" stroke="black" points="409.394,-74.3211 534.606,-74.3211 "/>
<path fill="none" stroke="black" d="M534.606,-74.3211C540.606,-74.3211 546.606,-80.3211 546.606,-86.3211"/>
<polyline fill="none" stroke="black" points="546.606,-86.3211 546.606,-145.679 "/>
<path fill="none" stroke="black" d="M546.606,-145.679C546.606,-151.679 540.606,-157.679 534.606,-157.679"/>
<polyline fill="none" stroke="black" points="534.606,-157.679 409.394,-157.679 "/>
<path fill="none" stroke="black" d="M409.394,-157.679C403.394,-157.679 397.394,-151.679 397.394,-145.679"/>
<polyline fill="none" stroke="black" points="397.394,-145.679 397.394,-86.3211 "/>
<path fill="none" stroke="black" d="M397.394,-86.3211C397.394,-80.3211 403.394,-74.3211 409.394,-74.3211"/>
<text text-anchor="middle" x="472" y="-139.679" font-family="Sans" font-size="14.00">[ Greeter(name) ]</text>
<polyline fill="none" stroke="black" points="397.394,-129.893 546.606,-129.893 "/>
<text text-anchor="middle" x="472" y="-111.893" font-family="Sans" font-size="14.00">{this.name = name}</text>
<polyline fill="none" stroke="black" points="397.394,-102.107 546.606,-102.107 "/>
<text text-anchor="middle" x="472" y="-84.107" font-family="Sans" font-size="14.00">prototype</text>
</g>
<!-- top&#45;&gt;fn_Greeter -->
<g id="edge2" class="edge"><title>top:Greeter&#45;&gt;fn_Greeter:__proto__</title>
<path fill="none" stroke="black" d="M74,-134C213.684,-134 251.016,-143.518 385.702,-143.982"/>
<polygon fill="black" stroke="black" points="385.994,-147.483 396,-144 386.006,-140.483 385.994,-147.483"/>
</g>
<!-- ob_GreeterProto -->
<g id="node2" class="node"><title>ob_GreeterProto</title>
<polygon fill="lightskyblue" stroke="lightskyblue" points="254.008,-29.3211 323.992,-29.3211 335.992,-41.3211 335.992,-100.679 323.992,-112.679 254.008,-112.679 242.008,-100.679 242.008,-41.3211 254.008,-29.3211"/>
<path fill="lightskyblue" stroke="lightskyblue" d="M323.992,-29.3211C329.992,-29.3211 335.992,-35.3211 335.992,-41.3211"/>
<path fill="lightskyblue" stroke="lightskyblue" d="M335.992,-100.679C335.992,-106.679 329.992,-112.679 323.992,-112.679"/>
<path fill="lightskyblue" stroke="lightskyblue" d="M254.008,-112.679C248.008,-112.679 242.008,-106.679 242.008,-100.679"/>
<path fill="lightskyblue" stroke="lightskyblue" d="M242.008,-41.3211C242.008,-35.3211 248.008,-29.3211 254.008,-29.3211"/>
<polyline fill="none" stroke="black" points="254.008,-29.3211 323.992,-29.3211 "/>
<path fill="none" stroke="black" d="M323.992,-29.3211C329.992,-29.3211 335.992,-35.3211 335.992,-41.3211"/>
<polyline fill="none" stroke="black" points="335.992,-41.3211 335.992,-100.679 "/>
<path fill="none" stroke="black" d="M335.992,-100.679C335.992,-106.679 329.992,-112.679 323.992,-112.679"/>
<polyline fill="none" stroke="black" points="323.992,-112.679 254.008,-112.679 "/>
<path fill="none" stroke="black" d="M254.008,-112.679C248.008,-112.679 242.008,-106.679 242.008,-100.679"/>
<polyline fill="none" stroke="black" points="242.008,-100.679 242.008,-41.3211 "/>
<path fill="none" stroke="black" d="M242.008,-41.3211C242.008,-35.3211 248.008,-29.3211 254.008,-29.3211"/>
<text text-anchor="middle" x="289" y="-94.6789" font-family="Sans" font-size="14.00">[ Object ]</text>
<polyline fill="none" stroke="black" points="242.008,-84.893 335.992,-84.893 "/>
<text text-anchor="middle" x="289" y="-66.893" font-family="Sans" font-size="14.00">constructor</text>
<polyline fill="none" stroke="black" points="242.008,-57.107 335.992,-57.107 "/>
<text text-anchor="middle" x="289" y="-39.107" font-family="Sans" font-size="14.00">greet</text>
</g>
<!-- ob_GreeterProto&#45;&gt;fn_Greeter -->
<g id="edge8" class="edge"><title>ob_GreeterProto:constructor&#45;&gt;fn_Greeter:__proto__</title>
<path fill="none" stroke="black" d="M336,-71C374.06,-71 357.922,-130.954 385.82,-142.195"/>
<polygon fill="black" stroke="black" points="385.543,-145.701 396,-144 386.764,-138.808 385.543,-145.701"/>
</g>
<!-- fn_greet -->
<g id="node5" class="node"><title>fn_greet</title>
<polygon fill="orange" stroke="orange" points="384.672,-0.214063 559.328,-0.214063 571.328,-12.2141 571.328,-43.7859 559.328,-55.7859 384.672,-55.7859 372.672,-43.7859 372.672,-12.2141 384.672,-0.214063"/>
<path fill="orange" stroke="orange" d="M559.328,-0.214063C565.328,-0.214063 571.328,-6.21406 571.328,-12.2141"/>
<path fill="orange" stroke="orange" d="M571.328,-43.7859C571.328,-49.7859 565.328,-55.7859 559.328,-55.7859"/>
<path fill="orange" stroke="orange" d="M384.672,-55.7859C378.672,-55.7859 372.672,-49.7859 372.672,-43.7859"/>
<path fill="orange" stroke="orange" d="M372.672,-12.2141C372.672,-6.21406 378.672,-0.214063 384.672,-0.214063"/>
<polyline fill="none" stroke="black" points="384.672,-0.214063 559.328,-0.214063 "/>
<path fill="none" stroke="black" d="M559.328,-0.214063C565.328,-0.214063 571.328,-6.21406 571.328,-12.2141"/>
<polyline fill="none" stroke="black" points="571.328,-12.2141 571.328,-43.7859 "/>
<path fill="none" stroke="black" d="M571.328,-43.7859C571.328,-49.7859 565.328,-55.7859 559.328,-55.7859"/>
<polyline fill="none" stroke="black" points="559.328,-55.7859 384.672,-55.7859 "/>
<path fill="none" stroke="black" d="M384.672,-55.7859C378.672,-55.7859 372.672,-49.7859 372.672,-43.7859"/>
<polyline fill="none" stroke="black" points="372.672,-43.7859 372.672,-12.2141 "/>
<path fill="none" stroke="black" d="M372.672,-12.2141C372.672,-6.21406 378.672,-0.214063 384.672,-0.214063"/>
<text text-anchor="middle" x="472" y="-37.7859" font-family="Sans" font-size="14.00">[ Function ]</text>
<polyline fill="none" stroke="black" points="372.672,-28 571.328,-28 "/>
<text text-anchor="middle" x="472" y="-10" font-family="Sans" font-size="14.00">{this.name + &#39; greets you!&#39;}</text>
</g>
<!-- ob_GreeterProto&#45;&gt;fn_greet -->
<g id="edge10" class="edge"><title>ob_GreeterProto:greet&#45;&gt;fn_greet:__proto__</title>
<path fill="none" stroke="black" d="M336,-43C348.005,-43 353.249,-42.4375 361.873,-42.1562"/>
<polygon fill="black" stroke="black" points="362.055,-45.654 372,-42 361.947,-38.6548 362.055,-45.654"/>
</g>
<!-- ob_bob&#45;&gt;ob_GreeterProto -->
<g id="edge12" class="edge"><title>ob_bob:__proto__&#45;&gt;ob_GreeterProto:__proto__</title>
<path fill="none" stroke="black" stroke-dasharray="5,2" d="M206,-99C218,-99 223.25,-99 231.875,-99"/>
<polygon fill="black" stroke="black" points="232,-102.5 242,-99 232,-95.5001 232,-102.5"/>
</g>
<!-- fn_Greeter&#45;&gt;ob_GreeterProto -->
<g id="edge6" class="edge"><title>fn_Greeter:prototype&#45;&gt;ob_GreeterProto:__proto__</title>
<path fill="none" stroke="black" d="M396,-88C372.595,-88 365.09,-96.1978 346.033,-98.4394"/>
<polygon fill="black" stroke="black" points="345.789,-94.9474 336,-99 346.18,-101.937 345.789,-94.9474"/>
</g>
</g>
</svg>
