<?xml version="1.0" encoding="UTF-8" standalone="no"?>
<!DOCTYPE svg PUBLIC "-//W3C//DTD SVG 1.1//EN"
 "http://www.w3.org/Graphics/SVG/1.1/DTD/svg11.dtd">
<!-- Generated by graphviz version 2.28.0 (20111028.1807)
 -->
<!-- Title: finite_state_machine Pages: 1 -->
<svg width="566pt" height="273pt"
 viewBox="0.00 0.00 566.00 273.48" xmlns="http://www.w3.org/2000/svg" xmlns:xlink="http://www.w3.org/1999/xlink">
<g id="graph1" class="graph" transform="scale(1 1) rotate(0) translate(4 269.48)">
<title>finite_state_machine</title>
<polygon fill="white" stroke="white" points="-4,5 -4,-269.48 563,-269.48 563,5 -4,5"/>
<!-- top -->
<g id="node1" class="node"><title>top</title>
<polygon fill="beige" stroke="beige" points="12.0566,-98.4281 61.9434,-98.4281 73.9434,-110.428 73.9434,-197.572 61.9434,-209.572 12.0566,-209.572 0.0566406,-197.572 0.0566406,-110.428 12.0566,-98.4281"/>
<path fill="beige" stroke="beige" d="M61.9434,-98.4281C67.9434,-98.4281 73.9434,-104.428 73.9434,-110.428"/>
<path fill="beige" stroke="beige" d="M73.9434,-197.572C73.9434,-203.572 67.9434,-209.572 61.9434,-209.572"/>
<path fill="beige" stroke="beige" d="M12.0566,-209.572C6.05664,-209.572 0.0566406,-203.572 0.0566406,-197.572"/>
<path fill="beige" stroke="beige" d="M0.0566406,-110.428C0.0566406,-104.428 6.05664,-98.4281 12.0566,-98.4281"/>
<polyline fill="none" stroke="black" points="12.0566,-98.4281 61.9434,-98.4281 "/>
<path fill="none" stroke="black" d="M61.9434,-98.4281C67.9434,-98.4281 73.9434,-104.428 73.9434,-110.428"/>
<polyline fill="none" stroke="black" points="73.9434,-110.428 73.9434,-197.572 "/>
<path fill="none" stroke="black" d="M73.9434,-197.572C73.9434,-203.572 67.9434,-209.572 61.9434,-209.572"/>
<polyline fill="none" stroke="black" points="61.9434,-209.572 12.0566,-209.572 "/>
<path fill="none" stroke="black" d="M12.0566,-209.572C6.05664,-209.572 0.0566406,-203.572 0.0566406,-197.572"/>
<polyline fill="none" stroke="black" points="0.0566406,-197.572 0.0566406,-110.428 "/>
<path fill="none" stroke="black" d="M0.0566406,-110.428C0.0566406,-104.428 6.05664,-98.4281 12.0566,-98.4281"/>
<text text-anchor="middle" x="37" y="-191.572" font-family="Sans" font-size="14.00">[ Scope ]</text>
<polyline fill="none" stroke="black" points="0.0566406,-181.786 73.9434,-181.786 "/>
<text text-anchor="middle" x="37" y="-163.786" font-family="Sans" font-size="14.00">first</text>
<polyline fill="none" stroke="black" points="0.0566406,-154 73.9434,-154 "/>
<text text-anchor="middle" x="37" y="-136" font-family="Sans" font-size="14.00">second</text>
<polyline fill="none" stroke="black" points="0.0566406,-126.214 73.9434,-126.214 "/>
<text text-anchor="middle" x="37" y="-108.214" font-family="Sans" font-size="14.00">third</text>
</g>
<!-- fn_first -->
<g id="node4" class="node"><title>fn_first</title>
<polygon fill="orange" stroke="orange" points="122.09,-140.321 247.91,-140.321 259.91,-152.321 259.91,-211.679 247.91,-223.679 122.09,-223.679 110.09,-211.679 110.09,-152.321 122.09,-140.321"/>
<path fill="orange" stroke="orange" d="M247.91,-140.321C253.91,-140.321 259.91,-146.321 259.91,-152.321"/>
<path fill="orange" stroke="orange" d="M259.91,-211.679C259.91,-217.679 253.91,-223.679 247.91,-223.679"/>
<path fill="orange" stroke="orange" d="M122.09,-223.679C116.09,-223.679 110.09,-217.679 110.09,-211.679"/>
<path fill="orange" stroke="orange" d="M110.09,-152.321C110.09,-146.321 116.09,-140.321 122.09,-140.321"/>
<polyline fill="none" stroke="black" points="122.09,-140.321 247.91,-140.321 "/>
<path fill="none" stroke="black" d="M247.91,-140.321C253.91,-140.321 259.91,-146.321 259.91,-152.321"/>
<polyline fill="none" stroke="black" points="259.91,-152.321 259.91,-211.679 "/>
<path fill="none" stroke="black" d="M259.91,-211.679C259.91,-217.679 253.91,-223.679 247.91,-223.679"/>
<polyline fill="none" stroke="black" points="247.91,-223.679 122.09,-223.679 "/>
<path fill="none" stroke="black" d="M122.09,-223.679C116.09,-223.679 110.09,-217.679 110.09,-211.679"/>
<polyline fill="none" stroke="black" points="110.09,-211.679 110.09,-152.321 "/>
<path fill="none" stroke="black" d="M110.09,-152.321C110.09,-146.321 116.09,-140.321 122.09,-140.321"/>
<text text-anchor="middle" x="185" y="-205.679" font-family="Sans" font-size="14.00">[first(a)]</text>
<polyline fill="none" stroke="black" points="110.09,-195.893 259.91,-195.893 "/>
<text text-anchor="middle" x="185" y="-177.893" font-family="Sans" font-size="14.00">{ return function... }</text>
<polyline fill="none" stroke="black" points="110.09,-168.107 259.91,-168.107 "/>
<text text-anchor="middle" x="185" y="-150.107" font-family="Sans" font-size="14.00">[scope]</text>
</g>
<!-- top&#45;&gt;fn_first -->
<g id="edge2" class="edge"><title>top:first&#45;&gt;fn_first:__proto__</title>
<path fill="none" stroke="black" d="M74,-168C94.3598,-168 88.8267,-196.803 100.286,-206.704"/>
<polygon fill="black" stroke="black" points="99.4056,-210.102 110,-210 101.655,-203.473 99.4056,-210.102"/>
</g>
<!-- fn_second -->
<g id="node5" class="node"><title>fn_second</title>
<polygon fill="orange" stroke="orange" points="308.09,-42.3211 433.91,-42.3211 445.91,-54.3211 445.91,-113.679 433.91,-125.679 308.09,-125.679 296.09,-113.679 296.09,-54.3211 308.09,-42.3211"/>
<path fill="orange" stroke="orange" d="M433.91,-42.3211C439.91,-42.3211 445.91,-48.3211 445.91,-54.3211"/>
<path fill="orange" stroke="orange" d="M445.91,-113.679C445.91,-119.679 439.91,-125.679 433.91,-125.679"/>
<path fill="orange" stroke="orange" d="M308.09,-125.679C302.09,-125.679 296.09,-119.679 296.09,-113.679"/>
<path fill="orange" stroke="orange" d="M296.09,-54.3211C296.09,-48.3211 302.09,-42.3211 308.09,-42.3211"/>
<polyline fill="none" stroke="black" points="308.09,-42.3211 433.91,-42.3211 "/>
<path fill="none" stroke="black" d="M433.91,-42.3211C439.91,-42.3211 445.91,-48.3211 445.91,-54.3211"/>
<polyline fill="none" stroke="black" points="445.91,-54.3211 445.91,-113.679 "/>
<path fill="none" stroke="black" d="M445.91,-113.679C445.91,-119.679 439.91,-125.679 433.91,-125.679"/>
<polyline fill="none" stroke="black" points="433.91,-125.679 308.09,-125.679 "/>
<path fill="none" stroke="black" d="M308.09,-125.679C302.09,-125.679 296.09,-119.679 296.09,-113.679"/>
<polyline fill="none" stroke="black" points="296.09,-113.679 296.09,-54.3211 "/>
<path fill="none" stroke="black" d="M296.09,-54.3211C296.09,-48.3211 302.09,-42.3211 308.09,-42.3211"/>
<text text-anchor="middle" x="371" y="-107.679" font-family="Sans" font-size="14.00">[second(b)]</text>
<polyline fill="none" stroke="black" points="296.09,-97.893 445.91,-97.893 "/>
<text text-anchor="middle" x="371" y="-79.893" font-family="Sans" font-size="14.00">{ return function... }</text>
<polyline fill="none" stroke="black" points="296.09,-70.107 445.91,-70.107 "/>
<text text-anchor="middle" x="371" y="-52.107" font-family="Sans" font-size="14.00">[scope]</text>
</g>
<!-- top&#45;&gt;fn_second -->
<g id="edge4" class="edge"><title>top:second&#45;&gt;fn_second:__proto__</title>
<path fill="none" stroke="black" d="M74,-140C90.4924,-140 93.7549,-133.845 110,-131 188.334,-117.28 210.982,-112.419 285.622,-112.026"/>
<polygon fill="black" stroke="black" points="286.009,-115.525 296,-112 285.991,-108.525 286.009,-115.525"/>
</g>
<!-- fn_third -->
<g id="node6" class="node"><title>fn_third</title>
<polygon fill="orange" stroke="orange" points="125.022,-0.321094 244.978,-0.321094 256.978,-12.3211 256.978,-71.6789 244.978,-83.6789 125.022,-83.6789 113.022,-71.6789 113.022,-12.3211 125.022,-0.321094"/>
<path fill="orange" stroke="orange" d="M244.978,-0.321094C250.978,-0.321094 256.978,-6.32109 256.978,-12.3211"/>
<path fill="orange" stroke="orange" d="M256.978,-71.6789C256.978,-77.6789 250.978,-83.6789 244.978,-83.6789"/>
<path fill="orange" stroke="orange" d="M125.022,-83.6789C119.022,-83.6789 113.022,-77.6789 113.022,-71.6789"/>
<path fill="orange" stroke="orange" d="M113.022,-12.3211C113.022,-6.32109 119.022,-0.321094 125.022,-0.321094"/>
<polyline fill="none" stroke="black" points="125.022,-0.321094 244.978,-0.321094 "/>
<path fill="none" stroke="black" d="M244.978,-0.321094C250.978,-0.321094 256.978,-6.32109 256.978,-12.3211"/>
<polyline fill="none" stroke="black" points="256.978,-12.3211 256.978,-71.6789 "/>
<path fill="none" stroke="black" d="M256.978,-71.6789C256.978,-77.6789 250.978,-83.6789 244.978,-83.6789"/>
<polyline fill="none" stroke="black" points="244.978,-83.6789 125.022,-83.6789 "/>
<path fill="none" stroke="black" d="M125.022,-83.6789C119.022,-83.6789 113.022,-77.6789 113.022,-71.6789"/>
<polyline fill="none" stroke="black" points="113.022,-71.6789 113.022,-12.3211 "/>
<path fill="none" stroke="black" d="M113.022,-12.3211C113.022,-6.32109 119.022,-0.321094 125.022,-0.321094"/>
<text text-anchor="middle" x="185" y="-65.6789" font-family="Sans" font-size="14.00">[third(c)]</text>
<polyline fill="none" stroke="black" points="113.022,-55.893 256.978,-55.893 "/>
<text text-anchor="middle" x="185" y="-37.893" font-family="Sans" font-size="14.00">{ return a + b + c }</text>
<polyline fill="none" stroke="black" points="113.022,-28.107 256.978,-28.107 "/>
<text text-anchor="middle" x="185" y="-10.107" font-family="Sans" font-size="14.00">[scope]</text>
</g>
<!-- top&#45;&gt;fn_third -->
<g id="edge6" class="edge"><title>top:third&#45;&gt;fn_third:__proto__</title>
<path fill="none" stroke="black" d="M74,-112C95.043,-112 89.8682,-82.6508 102.308,-73.0205"/>
<polygon fill="black" stroke="black" points="103.494,-76.317 112,-70 101.411,-69.6341 103.494,-76.317"/>
</g>
<!-- cl_second -->
<g id="node2" class="node"><title>cl_second</title>
<polygon fill="beige" stroke="beige" points="493.973,-130.214 546.027,-130.214 558.027,-142.214 558.027,-173.786 546.027,-185.786 493.973,-185.786 481.973,-173.786 481.973,-142.214 493.973,-130.214"/>
<path fill="beige" stroke="beige" d="M546.027,-130.214C552.027,-130.214 558.027,-136.214 558.027,-142.214"/>
<path fill="beige" stroke="beige" d="M558.027,-173.786C558.027,-179.786 552.027,-185.786 546.027,-185.786"/>
<path fill="beige" stroke="beige" d="M493.973,-185.786C487.973,-185.786 481.973,-179.786 481.973,-173.786"/>
<path fill="beige" stroke="beige" d="M481.973,-142.214C481.973,-136.214 487.973,-130.214 493.973,-130.214"/>
<polyline fill="none" stroke="black" points="493.973,-130.214 546.027,-130.214 "/>
<path fill="none" stroke="black" d="M546.027,-130.214C552.027,-130.214 558.027,-136.214 558.027,-142.214"/>
<polyline fill="none" stroke="black" points="558.027,-142.214 558.027,-173.786 "/>
<path fill="none" stroke="black" d="M558.027,-173.786C558.027,-179.786 552.027,-185.786 546.027,-185.786"/>
<polyline fill="none" stroke="black" points="546.027,-185.786 493.973,-185.786 "/>
<path fill="none" stroke="black" d="M493.973,-185.786C487.973,-185.786 481.973,-179.786 481.973,-173.786"/>
<polyline fill="none" stroke="black" points="481.973,-173.786 481.973,-142.214 "/>
<path fill="none" stroke="black" d="M481.973,-142.214C481.973,-136.214 487.973,-130.214 493.973,-130.214"/>
<text text-anchor="middle" x="520" y="-167.786" font-family="Sans" font-size="14.00">[ Scope ]</text>
<polyline fill="none" stroke="black" points="481.973,-158 558.027,-158 "/>
<text text-anchor="middle" x="520" y="-140" font-family="Sans" font-size="14.00">a=&#39;Hello&#39;</text>
</g>
<!-- cl_second&#45;&gt;top -->
<g id="edge14" class="edge"><title>cl_second&#45;&gt;top:__proto__</title>
<path fill="none" stroke="black" stroke-dasharray="5,2" d="M486.415,-185.788C474.426,-194.601 460.275,-203.479 446,-209 306.367,-263.008 247.922,-291.239 110,-233 92.6613,-225.679 94.9832,-205.471 83.7126,-198.445"/>
<polygon fill="black" stroke="black" points="84.5519,-195.048 74,-196 82.8428,-201.836 84.5519,-195.048"/>
</g>
<!-- cl_third -->
<g id="node3" class="node"><title>cl_third</title>
<polygon fill="beige" stroke="beige" points="346.057,-144.214 395.943,-144.214 407.943,-156.214 407.943,-187.786 395.943,-199.786 346.057,-199.786 334.057,-187.786 334.057,-156.214 346.057,-144.214"/>
<path fill="beige" stroke="beige" d="M395.943,-144.214C401.943,-144.214 407.943,-150.214 407.943,-156.214"/>
<path fill="beige" stroke="beige" d="M407.943,-187.786C407.943,-193.786 401.943,-199.786 395.943,-199.786"/>
<path fill="beige" stroke="beige" d="M346.057,-199.786C340.057,-199.786 334.057,-193.786 334.057,-187.786"/>
<path fill="beige" stroke="beige" d="M334.057,-156.214C334.057,-150.214 340.057,-144.214 346.057,-144.214"/>
<polyline fill="none" stroke="black" points="346.057,-144.214 395.943,-144.214 "/>
<path fill="none" stroke="black" d="M395.943,-144.214C401.943,-144.214 407.943,-150.214 407.943,-156.214"/>
<polyline fill="none" stroke="black" points="407.943,-156.214 407.943,-187.786 "/>
<path fill="none" stroke="black" d="M407.943,-187.786C407.943,-193.786 401.943,-199.786 395.943,-199.786"/>
<polyline fill="none" stroke="black" points="395.943,-199.786 346.057,-199.786 "/>
<path fill="none" stroke="black" d="M346.057,-199.786C340.057,-199.786 334.057,-193.786 334.057,-187.786"/>
<polyline fill="none" stroke="black" points="334.057,-187.786 334.057,-156.214 "/>
<path fill="none" stroke="black" d="M334.057,-156.214C334.057,-150.214 340.057,-144.214 346.057,-144.214"/>
<text text-anchor="middle" x="371" y="-181.786" font-family="Sans" font-size="14.00">[ Scope ]</text>
<polyline fill="none" stroke="black" points="334.057,-172 407.943,-172 "/>
<text text-anchor="middle" x="371" y="-154" font-family="Sans" font-size="14.00">b=42</text>
</g>
<!-- cl_third&#45;&gt;cl_second -->
<g id="edge16" class="edge"><title>cl_third&#45;&gt;cl_second:__proto__</title>
<path fill="none" stroke="black" stroke-dasharray="5,2" d="M408.166,-172C426.692,-172 449.897,-172 471.746,-172"/>
<polygon fill="black" stroke="black" points="472,-175.5 482,-172 472,-168.5 472,-175.5"/>
</g>
<!-- fn_first&#45;&gt;top -->
<g id="edge8" class="edge"><title>fn_first:__scope__&#45;&gt;top</title>
<path fill="none" stroke="black" d="M110,-154C101.735,-154 92.9371,-154 84.4321,-154"/>
<polygon fill="black" stroke="black" points="84.259,-150.5 74.2589,-154 84.2589,-157.5 84.259,-150.5"/>
</g>
<!-- fn_second&#45;&gt;cl_second -->
<g id="edge10" class="edge"><title>fn_second:__scope__&#45;&gt;cl_second</title>
<path fill="none" stroke="black" d="M446,-56C478.869,-56 498.355,-91.458 508.814,-120.562"/>
<polygon fill="black" stroke="black" points="505.524,-121.759 512.021,-130.128 512.161,-119.534 505.524,-121.759"/>
</g>
<!-- fn_third&#45;&gt;cl_third -->
<g id="edge12" class="edge"><title>fn_third:__scope__&#45;&gt;cl_third</title>
<path fill="none" stroke="black" d="M258,-14C314.367,-14 259.441,-92.0963 296,-135 303.638,-143.963 313.973,-150.98 324.495,-156.378"/>
<polygon fill="black" stroke="black" points="323.186,-159.631 333.726,-160.713 326.162,-153.295 323.186,-159.631"/>
</g>
</g>
</svg>
